<?xml version="1.0" encoding="UTF-8"?>
<!-- TEMPLATE: code-content-intro | 1080×1350 | Editorial dark cover -->
<!-- PLACEHOLDERS: TITLE, SUBTITLE, TAG, AVATAR_URL, HANDLE, IMAGE_1_URL, IMAGE_2_URL, IMAGE_3_URL, IMAGE_4_URL -->
<svg xmlns="http://www.w3.org/2000/svg" xmlns:xlink="http://www.w3.org/1999/xlink" width="1080" height="1350" viewBox="0 0 1080 1350">
  <defs>
    <radialGradient id="codeIntroGlowA" cx="18%" cy="20%" r="34%">
      <stop offset="0%" stop-color="#68aab2" stop-opacity="0.34"/>
      <stop offset="100%" stop-color="#51dbc8" stop-opacity="0"/>
    </radialGradient>
    <radialGradient id="codeIntroGlowB" cx="82%" cy="16%" r="28%">
      <stop offset="0%" stop-color="#a1784f" stop-opacity="0.28"/>
      <stop offset="100%" stop-color="#ffc46d" stop-opacity="0"/>
    </radialGradient>
    <linearGradient id="codeIntroBg" x1="0" y1="0" x2="1" y2="1">
      <stop offset="0%" stop-color="#2b2f32"/>
      <stop offset="32%" stop-color="#292733"/>
      <stop offset="67%" stop-color="#2c2521"/>
      <stop offset="100%" stop-color="#201a18"/>
    </linearGradient>
    <linearGradient id="codeIntroScrim" x1="0" y1="0" x2="0" y2="1">
      <stop offset="0%" stop-color="#08090e" stop-opacity="0.08"/>
      <stop offset="28%" stop-color="#08090e" stop-opacity="0.10"/>
      <stop offset="54%" stop-color="#06070c" stop-opacity="0.34"/>
      <stop offset="72%" stop-color="#04050a" stop-opacity="0.92"/>
      <stop offset="100%" stop-color="#030408" stop-opacity="1"/>
    </linearGradient>
    <clipPath id="codeIntroAvatarClip">
      <circle cx="94" cy="1280" r="22"/>
    </clipPath>
    <clipPath id="codeIntroOrbAClip"><circle cx="320" cy="250" r="115"/></clipPath>
    <clipPath id="codeIntroOrbBClip"><circle cx="760" cy="250" r="115"/></clipPath>
    <clipPath id="codeIntroOrbCClip"><circle cx="320" cy="514" r="115"/></clipPath>
    <clipPath id="codeIntroOrbDClip"><circle cx="760" cy="514" r="115"/></clipPath>
  </defs>

  <rect width="1080" height="1350" fill="url(#codeIntroBg)"/>
  <rect width="1080" height="1350" fill="url(#codeIntroGlowA)"/>
  <rect width="1080" height="1350" fill="url(#codeIntroGlowB)"/>

  <g opacity="0.98">
    <rect x="104" y="88" width="872" height="620" rx="34" fill="rgba(20,24,31,0.72)"/>
    <rect x="104" y="88" width="872" height="620" rx="34" fill="none" stroke="rgba(255,255,255,0.06)" stroke-width="1"/>
    <rect x="124" y="108" width="832" height="580" rx="24" fill="none" stroke="rgba(255,255,255,0.03)" stroke-width="1"/>

    <circle cx="146" cy="138" r="4.5" fill="rgba(255,255,255,0.2)"/>
    <circle cx="162" cy="138" r="4.5" fill="rgba(255,255,255,0.2)"/>
    <circle cx="178" cy="138" r="4.5" fill="rgba(255,255,255,0.2)"/>
    <text x="910" y="144" fill="rgba(245,212,111,0.8)" font-family="Inter,Arial,sans-serif" font-size="14" font-weight="700" letter-spacing="1.8" text-anchor="end">4 REPOS PREVIEW</text>

    <ellipse cx="320" cy="384" rx="102" ry="26" fill="#000000" fill-opacity="0.22"/>
    <ellipse cx="760" cy="384" rx="102" ry="26" fill="#000000" fill-opacity="0.22"/>
    <ellipse cx="320" cy="648" rx="102" ry="26" fill="#000000" fill-opacity="0.24"/>
    <ellipse cx="760" cy="648" rx="102" ry="26" fill="#000000" fill-opacity="0.22"/>

    <circle cx="320" cy="250" r="115" fill="#080a16"/>
    <circle cx="320" cy="250" r="115" fill="none" stroke="rgba(255,255,255,0.04)" stroke-width="1"/>
    <image href="{{IMAGE_1_URL}}" x="228" y="158" width="184" height="184" clip-path="url(#codeIntroOrbAClip)" preserveAspectRatio="xMidYMid meet"/>

    <circle cx="760" cy="250" r="115" fill="#151213"/>
    <circle cx="760" cy="250" r="115" fill="none" stroke="rgba(255,255,255,0.04)" stroke-width="1"/>
    <image href="{{IMAGE_2_URL}}" x="668" y="158" width="184" height="184" clip-path="url(#codeIntroOrbBClip)" preserveAspectRatio="xMidYMid meet"/>

    <circle cx="320" cy="514" r="115" fill="#051014"/>
    <circle cx="320" cy="514" r="115" fill="none" stroke="rgba(255,255,255,0.03)" stroke-width="1"/>
    <image href="{{IMAGE_3_URL}}" x="228" y="422" width="184" height="184" clip-path="url(#codeIntroOrbCClip)" preserveAspectRatio="xMidYMid meet"/>

    <circle cx="760" cy="514" r="115" fill="#fafafa"/>
    <circle cx="760" cy="514" r="115" fill="none" stroke="rgba(255,255,255,0.08)" stroke-width="1"/>
    <image href="{{IMAGE_4_URL}}" x="668" y="422" width="184" height="184" clip-path="url(#codeIntroOrbDClip)" preserveAspectRatio="xMidYMid meet"/>
  </g>

  <line x1="352" y1="918" x2="504" y2="918" stroke="rgba(255,255,255,0.16)" stroke-width="1"/>
  <text x="540" y="926" fill="rgba(255,255,255,0.75)" font-family="Inter,Arial,sans-serif" font-size="28" font-weight="700" text-anchor="middle">•</text>
  <line x1="576" y1="918" x2="728" y2="918" stroke="rgba(255,255,255,0.16)" stroke-width="1"/>

  <rect y="0" width="1080" height="1350" fill="url(#codeIntroScrim)"/>

  <text x="104" y="1048" fill="#ffffff" font-family="Oswald,Arial Narrow,Arial,sans-serif" font-size="84" font-weight="600" letter-spacing="-1.2">{{TITLE}}</text>
  <text x="104" y="1132" fill="rgba(244,248,255,0.9)" font-family="Inter,Arial,sans-serif" font-size="27" font-weight="500">{{SUBTITLE}}</text>

  <line x1="104" y1="1266" x2="976" y2="1266" stroke="rgba(255,255,255,0.08)" stroke-width="1"/>
  <image href="{{AVATAR_URL}}" x="104" y="1258" width="44" height="44" clip-path="url(#codeIntroAvatarClip)" preserveAspectRatio="xMidYMid slice"/>
  <circle cx="94" cy="1280" r="22" fill="none" stroke="rgba(255,255,255,0.16)" stroke-width="1" transform="translate(32 0)"/>
  <text x="160" y="1288" fill="rgba(239,242,248,0.72)" font-family="Inter,Arial,sans-serif" font-size="22" font-weight="500">{{HANDLE}}</text>
  <line x1="602" y1="1280" x2="686" y2="1280" stroke="#1fd4b6" stroke-width="2" stroke-linecap="round"/>
  <text x="704" y="1287" fill="rgba(255,255,255,0.86)" font-family="Inter,Arial,sans-serif" font-size="20" font-weight="700" letter-spacing="1">SWIPE FOR MORE</text>

  <g transform="translate(950 1279)">
    <circle cx="0" cy="0" r="5" fill="#ffffff"/>
    <circle cx="18" cy="0" r="5" fill="rgba(255,255,255,0.2)"/>
    <circle cx="36" cy="0" r="5" fill="rgba(255,255,255,0.2)"/>
    <circle cx="54" cy="0" r="5" fill="rgba(255,255,255,0.2)"/>
    <circle cx="72" cy="0" r="5" fill="rgba(255,255,255,0.2)"/>
    <circle cx="90" cy="0" r="5" fill="rgba(255,255,255,0.2)"/>
    <circle cx="108" cy="0" r="5" fill="rgba(255,255,255,0.2)"/>
  </g>
</svg>
